<svg preserveAspectRatio="none" overflow="visible" style="display: block;" width="9.58414" height="14.5834" viewBox="0 0 9.58414 14.5834" fill="none" xmlns="http://www.w3.org/2000/svg">
<g id="elements">
<path id="Icon" d="M4.79205 14.5833C4.48076 14.5833 4.19195 14.4453 3.97509 14.3146C3.74108 14.1735 3.49948 13.9838 3.26391 13.7757C2.79135 13.3582 2.28387 12.8135 1.82481 12.2848C1.36306 11.7531 0.93788 11.2232 0.628902 10.8273C0.474155 10.629 0.347958 10.4637 0.260199 10.3475C0.216308 10.2894 0.181998 10.2435 0.158502 10.212L0.131515 10.1757L0.124387 10.1661L0.12192 10.1627C-0.082798 9.88483 -0.0237227 9.49322 0.254196 9.2885C0.532101 9.08379 0.923333 9.14312 1.12806 9.421L1.1359 9.43161L1.16071 9.46498C1.18271 9.4945 1.21541 9.53818 1.25759 9.59401C1.34197 9.70571 1.46413 9.86583 1.61427 10.0582C1.91508 10.4436 2.32583 10.9553 2.76862 11.4652C3.21411 11.9783 3.6798 12.4752 4.09153 12.8389C4.11757 12.8619 4.14316 12.8842 4.16829 12.9057L4.1683 0.625C4.1683 0.279822 4.44812 -4.52614e-08 4.7933 0C5.13847 4.52678e-08 5.4183 0.279822 5.4183 0.625L5.41829 12.9036C5.44263 12.8827 5.4674 12.8612 5.49259 12.8389C5.90432 12.4752 6.37001 11.9783 6.8155 11.4652C7.2583 10.9553 7.66904 10.4436 7.96985 10.0582C8.12 9.86583 8.24216 9.70571 8.32653 9.59402C8.36871 9.53819 8.40141 9.4945 8.42341 9.46499L8.44822 9.43161L8.45607 9.421C8.66079 9.14312 9.05202 9.08379 9.32993 9.2885C9.60785 9.49322 9.66692 9.88483 9.4622 10.1627L9.45974 10.1661L9.45261 10.1757L9.42562 10.212C9.40213 10.2435 9.36782 10.2894 9.32392 10.3475C9.23617 10.4637 9.10997 10.6291 8.95522 10.8273C8.64624 11.2232 8.22107 11.7531 7.75931 12.2848C7.30026 12.8135 6.79277 13.3582 6.32021 13.7757C6.08465 13.9838 5.84304 14.1735 5.60903 14.3146C5.39347 14.4445 5.10682 14.5817 4.79766 14.5833" fill="white"/>
</g>
</svg>
