<svg preserveAspectRatio="none" overflow="visible" style="display: block;" width="9" height="9" viewBox="0 0 9 9" fill="none" xmlns="http://www.w3.org/2000/svg">
<g id="elements">
<path id="Icon" fill-rule="evenodd" clip-rule="evenodd" d="M0.146447 0.146447C0.341709 -0.0488155 0.658291 -0.0488155 0.853554 0.146447L4.5 3.79289L8.14645 0.146447C8.34171 -0.0488153 8.65829 -0.0488153 8.85355 0.146447C9.04882 0.341709 9.04882 0.658291 8.85355 0.853554L5.20711 4.5L8.85355 8.14645C9.04882 8.34171 9.04882 8.65829 8.85355 8.85355C8.65829 9.04882 8.34171 9.04882 8.14645 8.85355L4.5 5.20711L0.853553 8.85355C0.658291 9.04882 0.341709 9.04882 0.146447 8.85355C-0.0488155 8.65829 -0.0488155 8.34171 0.146447 8.14645L3.79289 4.5L0.146447 0.853553C-0.0488153 0.658291 -0.0488153 0.341709 0.146447 0.146447Z" fill="white"/>
</g>
</svg>
